<?xml version="1.0" standalone="no"?>
<!DOCTYPE svg PUBLIC "-//W3C//DTD SVG 20010904//EN"
 "http://www.w3.org/TR/2001/REC-SVG-20010904/DTD/svg10.dtd">
<svg version="1.0" xmlns="http://www.w3.org/2000/svg"
 width="25.000000pt" height="25.000000pt" viewBox="0 0 25.000000 25.000000"
 preserveAspectRatio="xMidYMid meet">

<g transform="translate(0.000000,25.000000) scale(0.100000,-0.100000)"
fill="#000000" stroke="none">
<path d="M66 131 c-31 -39 -56 -74 -56 -80 0 -16 112 -48 153 -43 55 6 53 17
-8 42 -47 19 -59 20 -90 10 -50 -17 -58 -3 -9 16 35 13 41 21 55 70 9 30 15
54 14 54 -2 0 -28 -31 -59 -69z"/>
<path d="M130 132 c-7 -23 -11 -43 -9 -45 2 -1 29 -14 60 -29 l57 -27 -16 41
c-9 24 -25 44 -39 49 -13 5 -27 19 -32 31 -8 21 -10 19 -21 -20z"/>
</g>
</svg>
